<mxfile host="app.diagrams.net" modified="2020-10-20T02:19:17.009Z" agent="5.0 (Windows)" etag="BF90MmN6A7L11IfQpjwn" version="13.8.0" type="github">
  <diagram id="BMEock_xsjPS6rRobUuY" name="Page-1">
    <mxGraphModel dx="1131" dy="767" grid="1" gridSize="14" guides="1" tooltips="1" connect="1" arrows="1" fold="1" page="1" pageScale="1" pageWidth="827" pageHeight="1169" math="0" shadow="0">
      <root>
        <mxCell id="0" />
        <mxCell id="1" parent="0" />
        <mxCell id="3nN3ofIE8-rXYo9S0Dkr-18" value="" style="whiteSpace=wrap;html=1;aspect=fixed;" vertex="1" parent="1">
          <mxGeometry x="280" y="420" width="490" height="490" as="geometry" />
        </mxCell>
        <mxCell id="3nN3ofIE8-rXYo9S0Dkr-1" value="客户端App" style="rounded=0;whiteSpace=wrap;html=1;" vertex="1" parent="1">
          <mxGeometry x="40" y="450" width="120" height="60" as="geometry" />
        </mxCell>
        <mxCell id="3nN3ofIE8-rXYo9S0Dkr-2" value="web客户端" style="rounded=0;whiteSpace=wrap;html=1;" vertex="1" parent="1">
          <mxGeometry x="40" y="610" width="120" height="60" as="geometry" />
        </mxCell>
        <mxCell id="3nN3ofIE8-rXYo9S0Dkr-3" value="其他客户端应用" style="rounded=0;whiteSpace=wrap;html=1;" vertex="1" parent="1">
          <mxGeometry x="40" y="770" width="120" height="60" as="geometry" />
        </mxCell>
        <mxCell id="3nN3ofIE8-rXYo9S0Dkr-5" value="&lt;div&gt;&lt;font style=&quot;font-size: 14px&quot;&gt;nginx+lua&lt;/font&gt;&lt;/div&gt;&lt;div&gt;&lt;font size=&quot;3&quot;&gt;开发网关&lt;/font&gt;&lt;/div&gt;&lt;div&gt;&lt;font size=&quot;3&quot;&gt;（kong）&lt;/font&gt;&lt;/div&gt;&lt;div&gt;&lt;font size=&quot;3&quot;&gt;（orange）&lt;br&gt;&lt;/font&gt;&lt;/div&gt;" style="rounded=1;whiteSpace=wrap;html=1;" vertex="1" parent="1">
          <mxGeometry x="344" y="450" width="140" height="380" as="geometry" />
        </mxCell>
        <mxCell id="3nN3ofIE8-rXYo9S0Dkr-6" value="&lt;font style=&quot;font-size: 14px&quot;&gt;zuul网关&lt;/font&gt;" style="rounded=1;whiteSpace=wrap;html=1;" vertex="1" parent="1">
          <mxGeometry x="580" y="450" width="140" height="380" as="geometry" />
        </mxCell>
        <mxCell id="3nN3ofIE8-rXYo9S0Dkr-7" value="商品服务" style="rounded=0;whiteSpace=wrap;html=1;" vertex="1" parent="1">
          <mxGeometry x="870" y="455" width="120" height="60" as="geometry" />
        </mxCell>
        <mxCell id="3nN3ofIE8-rXYo9S0Dkr-8" value="订单服务" style="rounded=0;whiteSpace=wrap;html=1;" vertex="1" parent="1">
          <mxGeometry x="870" y="655" width="120" height="60" as="geometry" />
        </mxCell>
        <mxCell id="3nN3ofIE8-rXYo9S0Dkr-9" value="评论服务" style="rounded=0;whiteSpace=wrap;html=1;" vertex="1" parent="1">
          <mxGeometry x="870" y="775" width="120" height="60" as="geometry" />
        </mxCell>
        <mxCell id="3nN3ofIE8-rXYo9S0Dkr-10" value="" style="shape=cylinder3;whiteSpace=wrap;html=1;boundedLbl=1;backgroundOutline=1;size=15;" vertex="1" parent="1">
          <mxGeometry x="1060" y="435" width="60" height="80" as="geometry" />
        </mxCell>
        <mxCell id="3nN3ofIE8-rXYo9S0Dkr-14" value="用户服务" style="rounded=0;whiteSpace=wrap;html=1;" vertex="1" parent="1">
          <mxGeometry x="870" y="555" width="120" height="60" as="geometry" />
        </mxCell>
        <mxCell id="3nN3ofIE8-rXYo9S0Dkr-15" value="" style="shape=cylinder3;whiteSpace=wrap;html=1;boundedLbl=1;backgroundOutline=1;size=15;" vertex="1" parent="1">
          <mxGeometry x="1060" y="535" width="60" height="80" as="geometry" />
        </mxCell>
        <mxCell id="3nN3ofIE8-rXYo9S0Dkr-16" value="" style="shape=cylinder3;whiteSpace=wrap;html=1;boundedLbl=1;backgroundOutline=1;size=15;" vertex="1" parent="1">
          <mxGeometry x="1060" y="645" width="60" height="80" as="geometry" />
        </mxCell>
        <mxCell id="3nN3ofIE8-rXYo9S0Dkr-17" value="" style="shape=cylinder3;whiteSpace=wrap;html=1;boundedLbl=1;backgroundOutline=1;size=15;" vertex="1" parent="1">
          <mxGeometry x="1060" y="765" width="60" height="80" as="geometry" />
        </mxCell>
        <mxCell id="3nN3ofIE8-rXYo9S0Dkr-19" value="zuulf服务" style="rounded=1;whiteSpace=wrap;html=1;" vertex="1" parent="1">
          <mxGeometry x="590" y="490" width="120" height="40" as="geometry" />
        </mxCell>
        <mxCell id="3nN3ofIE8-rXYo9S0Dkr-24" value="zuulf服务" style="rounded=1;whiteSpace=wrap;html=1;" vertex="1" parent="1">
          <mxGeometry x="590" y="545" width="120" height="40" as="geometry" />
        </mxCell>
        <mxCell id="3nN3ofIE8-rXYo9S0Dkr-25" value="zuulf服务" style="rounded=1;whiteSpace=wrap;html=1;" vertex="1" parent="1">
          <mxGeometry x="590" y="675" width="120" height="40" as="geometry" />
        </mxCell>
        <mxCell id="3nN3ofIE8-rXYo9S0Dkr-27" value="zuulf服务" style="rounded=1;whiteSpace=wrap;html=1;" vertex="1" parent="1">
          <mxGeometry x="590" y="735" width="120" height="40" as="geometry" />
        </mxCell>
        <mxCell id="3nN3ofIE8-rXYo9S0Dkr-28" value="" style="endArrow=classic;html=1;exitX=1;exitY=0.5;exitDx=0;exitDy=0;fillColor=#d5e8d4;strokeColor=#82b366;strokeWidth=3;" edge="1" parent="1" source="3nN3ofIE8-rXYo9S0Dkr-1">
          <mxGeometry width="50" height="50" relative="1" as="geometry">
            <mxPoint x="480" y="780" as="sourcePoint" />
            <mxPoint x="340" y="600" as="targetPoint" />
          </mxGeometry>
        </mxCell>
        <mxCell id="3nN3ofIE8-rXYo9S0Dkr-29" value="" style="endArrow=classic;html=1;exitX=1;exitY=0.5;exitDx=0;exitDy=0;fillColor=#d5e8d4;strokeColor=#82b366;strokeWidth=3;entryX=0;entryY=0.5;entryDx=0;entryDy=0;" edge="1" parent="1" target="3nN3ofIE8-rXYo9S0Dkr-5">
          <mxGeometry width="50" height="50" relative="1" as="geometry">
            <mxPoint x="160" y="645" as="sourcePoint" />
            <mxPoint x="340" y="765" as="targetPoint" />
          </mxGeometry>
        </mxCell>
        <mxCell id="3nN3ofIE8-rXYo9S0Dkr-30" value="" style="endArrow=classic;html=1;exitX=1;exitY=0.5;exitDx=0;exitDy=0;fillColor=#d5e8d4;strokeColor=#82b366;strokeWidth=3;" edge="1" parent="1" target="3nN3ofIE8-rXYo9S0Dkr-5">
          <mxGeometry width="50" height="50" relative="1" as="geometry">
            <mxPoint x="160" y="798" as="sourcePoint" />
            <mxPoint x="340" y="918" as="targetPoint" />
          </mxGeometry>
        </mxCell>
        <mxCell id="3nN3ofIE8-rXYo9S0Dkr-32" value="" style="endArrow=classic;html=1;fillColor=#d5e8d4;strokeColor=#82b366;strokeWidth=3;" edge="1" parent="1">
          <mxGeometry width="50" height="50" relative="1" as="geometry">
            <mxPoint x="490" y="615" as="sourcePoint" />
            <mxPoint x="588" y="615" as="targetPoint" />
          </mxGeometry>
        </mxCell>
        <mxCell id="3nN3ofIE8-rXYo9S0Dkr-33" value="" style="endArrow=classic;html=1;exitX=1;exitY=0.5;exitDx=0;exitDy=0;fillColor=#d5e8d4;strokeColor=#82b366;strokeWidth=3;entryX=0;entryY=0.5;entryDx=0;entryDy=0;" edge="1" parent="1" source="3nN3ofIE8-rXYo9S0Dkr-6">
          <mxGeometry width="50" height="50" relative="1" as="geometry">
            <mxPoint x="686" y="495" as="sourcePoint" />
            <mxPoint x="870" y="490" as="targetPoint" />
          </mxGeometry>
        </mxCell>
        <mxCell id="3nN3ofIE8-rXYo9S0Dkr-34" value="" style="endArrow=classic;html=1;exitX=1;exitY=0.5;exitDx=0;exitDy=0;fillColor=#d5e8d4;strokeColor=#82b366;strokeWidth=3;entryX=0;entryY=0.5;entryDx=0;entryDy=0;" edge="1" parent="1" target="3nN3ofIE8-rXYo9S0Dkr-8">
          <mxGeometry width="50" height="50" relative="1" as="geometry">
            <mxPoint x="720" y="645" as="sourcePoint" />
            <mxPoint x="904" y="640" as="targetPoint" />
          </mxGeometry>
        </mxCell>
        <mxCell id="3nN3ofIE8-rXYo9S0Dkr-35" value="" style="endArrow=classic;html=1;exitX=1;exitY=0.5;exitDx=0;exitDy=0;fillColor=#d5e8d4;strokeColor=#82b366;strokeWidth=3;entryX=0;entryY=0.5;entryDx=0;entryDy=0;" edge="1" parent="1" target="3nN3ofIE8-rXYo9S0Dkr-9">
          <mxGeometry width="50" height="50" relative="1" as="geometry">
            <mxPoint x="720" y="645" as="sourcePoint" />
            <mxPoint x="904" y="640" as="targetPoint" />
          </mxGeometry>
        </mxCell>
        <mxCell id="3nN3ofIE8-rXYo9S0Dkr-36" value="" style="endArrow=classic;html=1;exitX=1;exitY=0.5;exitDx=0;exitDy=0;fillColor=#d5e8d4;strokeColor=#82b366;strokeWidth=3;" edge="1" parent="1">
          <mxGeometry width="50" height="50" relative="1" as="geometry">
            <mxPoint x="720" y="642.5" as="sourcePoint" />
            <mxPoint x="868" y="588" as="targetPoint" />
          </mxGeometry>
        </mxCell>
      </root>
    </mxGraphModel>
  </diagram>
</mxfile>
